<?xml version="1.0" encoding="UTF-8" standalone="no"?>
<!DOCTYPE svg PUBLIC "-//W3C//DTD SVG 1.1//EN" "http://www.w3.org/Graphics/SVG/1.1/DTD/svg11.dtd">
<!-- 由 Microsoft Visio, SVG Export 生成 Fehlernetz.svg 页-1 -->
<svg xmlns="http://www.w3.org/2000/svg" xmlns:xlink="http://www.w3.org/1999/xlink" xmlns:ev="http://www.w3.org/2001/xml-events"
		xmlns:v="http://schemas.microsoft.com/visio/2003/SVGExtensions/" width="6.77499in" height="4.71667in"
		viewBox="0 0 487.799 339.6" xml:space="preserve" color-interpolation-filters="sRGB" class="st6">
	<v:documentProperties v:langID="1033" v:metric="true" v:viewMarkup="false"/>

	<style type="text/css">
	<![CDATA[
		.st1 {fill:#ffffff;stroke:#000000;stroke-linecap:round;stroke-linejoin:round;stroke-width:0.24}
		.st2 {fill:#000000;font-family:Calibri;font-size:0.833336em}
		.st3 {font-size:1em}
		.st4 {stroke:#000000;stroke-linecap:round;stroke-linejoin:round;stroke-width:0.75}
		.st5 {fill:#000000;font-family:Calibri;font-size:1.5em}
		.st6 {fill:none;fill-rule:evenodd;font-size:12px;overflow:visible;stroke-linecap:square;stroke-miterlimit:3}
	]]>
	</style>

	<g v:mID="0" v:index="1" v:groupContext="foregroundPage">
		<title>页-1</title>
		<v:pageProperties v:drawingScale="0.0393701" v:pageScale="0.0393701" v:drawingUnits="24" v:shadowOffsetX="8.50394"
				v:shadowOffsetY="-8.50394"/>
		<v:layer v:name="连接线" v:index="0"/>
		<g id="shape19-1" v:mID="19" v:groupContext="shape" transform="translate(349.136,-155.671)">
			<title>矩形.19</title>
			<desc>&#62;=1</desc>
			<v:userDefs>
				<v:ud v:nameU="visVersion" v:val="VT0(15):26"/>
			</v:userDefs>
			<v:textBlock v:margins="rect(4,4,4,4)" v:tabSpace="42.5197"/>
			<v:textRect cx="21.6142" cy="323.39" width="43.23" height="32.4213"/>
			<rect x="0" y="307.179" width="43.2283" height="32.4213" class="st1"/>
			<text x="14.1" y="326.39" class="st2" v:langID="1031"><v:paragraph v:horizAlign="1"/><v:tabList/>&#62;=1</text>		</g>
		<g id="shape20-4" v:mID="20" v:groupContext="shape" transform="translate(423.9,-147.964)">
			<title>矩形.20</title>
			<desc>Fahrzeug ausgefallen</desc>
			<v:userDefs>
				<v:ud v:nameU="visVersion" v:val="VT0(15):26"/>
			</v:userDefs>
			<v:textBlock v:margins="rect(4,4,4,4)" v:tabSpace="42.5197"/>
			<v:textRect cx="31.8898" cy="315.683" width="63.78" height="47.8346"/>
			<rect x="0" y="291.766" width="63.7795" height="47.8346" class="st1"/>
			<text x="13.38" y="312.68" class="st2" v:langID="1031"><v:paragraph v:horizAlign="1"/><v:tabList/>Fahrzeug <v:newlineChar/><tspan
						x="8.74" dy="1.2em" class="st3">ausgefallen</tspan></text>		</g>
		<g id="shape21-8" v:mID="21" v:groupContext="shape" transform="translate(127.679,-190.13)">
			<title>矩形.21</title>
			<desc>&#62;=1</desc>
			<v:userDefs>
				<v:ud v:nameU="visVersion" v:val="VT0(15):26"/>
			</v:userDefs>
			<v:textBlock v:margins="rect(4,4,4,4)" v:tabSpace="42.5197"/>
			<v:textRect cx="21.6142" cy="323.39" width="43.23" height="32.4213"/>
			<rect x="0" y="307.179" width="43.2283" height="32.4213" class="st1"/>
			<text x="14.1" y="326.39" class="st2" v:langID="1031"><v:paragraph v:horizAlign="1"/><v:tabList/>&#62;=1</text>		</g>
		<g id="shape22-11" v:mID="22" v:groupContext="shape" transform="translate(237.522,-140.258)">
			<title>矩形.22</title>
			<desc>Sitz ausgefallen</desc>
			<v:userDefs>
				<v:ud v:nameU="visVersion" v:val="VT0(15):26"/>
			</v:userDefs>
			<v:textBlock v:margins="rect(4,4,4,4)" v:tabSpace="42.5197"/>
			<v:textRect cx="31.8898" cy="315.683" width="63.78" height="47.8346"/>
			<rect x="0" y="291.766" width="63.7795" height="47.8346" class="st1"/>
			<text x="24.8" y="312.68" class="st2" v:langID="1031"><v:paragraph v:horizAlign="1"/><v:tabList/>Sitz <v:newlineChar/><tspan
						x="8.74" dy="1.2em" class="st3">ausgefallen</tspan></text>		</g>
		<g id="shape23-15" v:mID="23" v:groupContext="shape" transform="translate(237.522,-70.1889)">
			<title>矩形.23</title>
			<desc>Karosserie ausgefallen</desc>
			<v:userDefs>
				<v:ud v:nameU="visVersion" v:val="VT0(15):26"/>
			</v:userDefs>
			<v:textBlock v:margins="rect(4,4,4,4)" v:tabSpace="42.5197"/>
			<v:textRect cx="31.8898" cy="315.683" width="63.78" height="47.8346"/>
			<rect x="0" y="291.766" width="63.7795" height="47.8346" class="st1"/>
			<text x="10.74" y="312.68" class="st2" v:langID="1031"><v:paragraph v:horizAlign="1"/><v:tabList/>Karosserie <v:newlineChar/><tspan
						x="8.74" dy="1.2em" class="st3">ausgefallen</tspan></text>		</g>
		<g id="shape24-19" v:mID="24" v:groupContext="shape" transform="translate(237.522,-0.12)">
			<title>矩形.24</title>
			<desc>Schaltung ausgefallen</desc>
			<v:userDefs>
				<v:ud v:nameU="visVersion" v:val="VT0(15):26"/>
			</v:userDefs>
			<v:textBlock v:margins="rect(4,4,4,4)" v:tabSpace="42.5197"/>
			<v:textRect cx="31.8898" cy="315.683" width="63.78" height="47.8346"/>
			<rect x="0" y="291.766" width="63.7795" height="47.8346" class="st1"/>
			<text x="12.03" y="312.68" class="st2" v:langID="1031"><v:paragraph v:horizAlign="1"/><v:tabList/>Schaltung <v:newlineChar/><tspan
						x="8.74" dy="1.2em" class="st3">ausgefallen</tspan></text>		</g>
		<g id="shape26-23" v:mID="26" v:groupContext="shape" v:layerMember="0" transform="translate(170.907,-204.009)">
			<title>动态连接线.26</title>
			<path d="M0 337.27 L10.63 337.27 L10.63 327.76 L20.2 327.76" class="st4"/>
		</g>
		<g id="shape27-26" v:mID="27" v:groupContext="shape" v:layerMember="0" transform="translate(301.301,-160.942)">
			<title>动态连接线.27</title>
			<path d="M0 336.37 L10.63 336.37 L10.63 328.66 L47.83 328.66" class="st4"/>
		</g>
		<g id="shape28-29" v:mID="28" v:groupContext="shape" v:layerMember="0" transform="translate(301.301,-94.1062)">
			<title>动态连接线.28</title>
			<path d="M0 339.6 L16.2 339.6 L16.2 267.49 L47.83 267.49" class="st4"/>
		</g>
		<g id="shape29-32" v:mID="29" v:groupContext="shape" v:layerMember="0" transform="translate(301.301,-24.0373)">
			<title>动态连接线.29</title>
			<path d="M0 339.6 L21.26 339.6 L21.26 203.09 L47.83 203.09" class="st4"/>
		</g>
		<g id="shape30-35" v:mID="30" v:groupContext="shape" v:layerMember="0" transform="translate(392.364,-164.795)">
			<title>动态连接线.30</title>
			<path d="M0 332.51 L31.54 332.51" class="st4"/>
		</g>
		<g id="shape31-38" v:mID="31" v:groupContext="shape" transform="translate(237.522,-280.396)">
			<title>矩形.31</title>
			<desc>gesamt Fahrzeug Fehlerhaft markiert</desc>
			<v:userDefs>
				<v:ud v:nameU="visVersion" v:val="VT0(15):26"/>
			</v:userDefs>
			<v:textBlock v:margins="rect(4,4,4,4)" v:tabSpace="42.5197"/>
			<v:textRect cx="31.8898" cy="315.683" width="63.78" height="47.8346"/>
			<rect x="0" y="291.766" width="63.7795" height="47.8346" class="st1"/>
			<text x="17.03" y="300.68" class="st2" v:langID="1031"><v:paragraph v:horizAlign="1"/><v:tabList/>gesamt<v:newlineChar/><tspan
						x="13.38" dy="1.2em" class="st3">Fahrzeug <v:newlineChar/></tspan><tspan x="10.88" dy="1.2em" class="st3">Fehlerhaft<v:newlineChar/></tspan><tspan
						x="14.43" dy="1.2em" class="st3">markiert</tspan></text>		</g>
		<g id="shape32-44" v:mID="32" v:groupContext="shape" v:layerMember="0" transform="translate(301.301,-304.313)">
			<title>动态连接线.32</title>
			<path d="M0 339.6 L28.46 339.6 L28.46 459.45 L47.83 459.45" class="st4"/>
		</g>
		<g id="shape33-47" v:mID="33" v:groupContext="shape" transform="translate(0.12,-255.681)">
			<title>矩形.33</title>
			<desc>Teil_xx Fehlerhaft markiert</desc>
			<v:userDefs>
				<v:ud v:nameU="visVersion" v:val="VT0(15):26"/>
			</v:userDefs>
			<v:textBlock v:margins="rect(4,4,4,4)" v:tabSpace="42.5197"/>
			<v:textRect cx="31.8898" cy="315.683" width="63.78" height="47.8346"/>
			<rect x="0" y="291.766" width="63.7795" height="47.8346" class="st1"/>
			<text x="17.85" y="312.68" class="st2" v:langID="1031"><v:paragraph v:horizAlign="1"/><v:tabList/><v:newlineChar/>Teil_xx <v:newlineChar/><tspan
						x="10.88" dy="1.2em" class="st3">Fehlerhaft<v:newlineChar/></tspan><tspan x="14.43" dy="1.2em" class="st3">markiert</tspan></text>		</g>
		<g id="shape34-52" v:mID="34" v:groupContext="shape" transform="translate(0.12,-197.216)">
			<title>矩形.34</title>
			<desc>Teil_xx Fehlerhaft markiert</desc>
			<v:userDefs>
				<v:ud v:nameU="visVersion" v:val="VT0(15):26"/>
			</v:userDefs>
			<v:textBlock v:margins="rect(4,4,4,4)" v:tabSpace="42.5197"/>
			<v:textRect cx="31.8898" cy="315.683" width="63.78" height="47.8346"/>
			<rect x="0" y="291.766" width="63.7795" height="47.8346" class="st1"/>
			<text x="17.85" y="306.68" class="st2" v:langID="1031"><v:paragraph v:horizAlign="1"/><v:tabList/>Teil_xx<v:newlineChar/><tspan
						x="10.88" dy="1.2em" class="st3">Fehlerhaft<v:newlineChar/></tspan><tspan x="14.43" dy="1.2em" class="st3">markiert</tspan></text>		</g>
		<g id="shape35-57" v:mID="35" v:groupContext="shape" transform="translate(0.12,-138.752)">
			<title>矩形.35</title>
			<desc>Teil_xx Fehlerhaft markiert</desc>
			<v:userDefs>
				<v:ud v:nameU="visVersion" v:val="VT0(15):26"/>
			</v:userDefs>
			<v:textBlock v:margins="rect(4,4,4,4)" v:tabSpace="42.5197"/>
			<v:textRect cx="31.8898" cy="315.683" width="63.78" height="47.8346"/>
			<rect x="0" y="291.766" width="63.7795" height="47.8346" class="st1"/>
			<text x="17.85" y="312.68" class="st2" v:langID="1031"><v:paragraph v:horizAlign="1"/><v:tabList/><v:newlineChar/>Teil_xx<v:newlineChar/><tspan
						x="10.88" dy="1.2em" class="st3">Fehlerhaft<v:newlineChar/></tspan><tspan x="14.43" dy="1.2em" class="st3">markiert</tspan></text>		</g>
		<g id="shape36-62" v:mID="36" v:groupContext="shape" transform="translate(0.12,-80.2873)">
			<title>矩形.36</title>
			<desc>Teil_xx Fehlerhaft markiert</desc>
			<v:userDefs>
				<v:ud v:nameU="visVersion" v:val="VT0(15):26"/>
			</v:userDefs>
			<v:textBlock v:margins="rect(4,4,4,4)" v:tabSpace="42.5197"/>
			<v:textRect cx="31.8898" cy="315.683" width="63.78" height="47.8346"/>
			<rect x="0" y="291.766" width="63.7795" height="47.8346" class="st1"/>
			<text x="17.85" y="312.68" class="st2" v:langID="1031"><v:paragraph v:horizAlign="1"/><v:tabList/><v:newlineChar/>Teil_xx<v:newlineChar/><tspan
						x="10.88" dy="1.2em" class="st3">Fehlerhaft<v:newlineChar/></tspan><tspan x="14.43" dy="1.2em" class="st3">markiert</tspan></text>		</g>
		<g id="shape37-67" v:mID="37" v:groupContext="shape" v:layerMember="0" transform="translate(63.8995,-279.598)">
			<title>动态连接线.37</title>
			<path d="M0 339.6 L25.74 339.6 L25.74 404.33 L63.78 404.33" class="st4"/>
		</g>
		<g id="shape38-70" v:mID="38" v:groupContext="shape" v:layerMember="0" transform="translate(63.8995,-221.134)">
			<title>动态连接线.38</title>
			<path d="M0 339.6 L10.63 339.6 L10.63 354.39 L63.78 354.39" class="st4"/>
		</g>
		<g id="shape39-73" v:mID="39" v:groupContext="shape" v:layerMember="0" transform="translate(63.8995,-162.669)">
			<title>动态连接线.39</title>
			<path d="M0 339.6 L10.63 339.6 L10.63 301.81 L63.78 301.81" class="st4"/>
		</g>
		<g id="shape40-76" v:mID="40" v:groupContext="shape" v:layerMember="0" transform="translate(63.8995,-104.205)">
			<title>动态连接线.40</title>
			<path d="M0 339.6 L35.43 339.6 L35.43 248.15 L63.78 248.15" class="st4"/>
		</g>
		<g id="shape43-79" v:mID="43" v:groupContext="shape" transform="translate(191.104,-210.327)">
			<title>矩形.43</title>
			<desc>&#62;=1</desc>
			<v:userDefs>
				<v:ud v:nameU="visVersion" v:val="VT0(15):26"/>
			</v:userDefs>
			<v:textBlock v:margins="rect(4,4,4,4)" v:tabSpace="42.5197"/>
			<v:textRect cx="21.6142" cy="323.39" width="43.23" height="32.4213"/>
			<rect x="0" y="307.179" width="43.2283" height="32.4213" class="st1"/>
			<text x="14.1" y="326.39" class="st2" v:langID="1031"><v:paragraph v:horizAlign="1"/><v:tabList/>&#62;=1</text>		</g>
		<g id="shape45-82" v:mID="45" v:groupContext="shape" transform="translate(117.403,-237.654)">
			<title>矩形.45</title>
			<desc>Motor_Kyy Fehlerhaft markiert</desc>
			<v:userDefs>
				<v:ud v:nameU="visVersion" v:val="VT0(15):26"/>
			</v:userDefs>
			<v:textBlock v:margins="rect(4,4,4,4)" v:tabSpace="42.5197"/>
			<v:textRect cx="31.8898" cy="315.683" width="63.78" height="47.8346"/>
			<rect x="0" y="291.766" width="63.7795" height="47.8346" class="st1"/>
			<text x="9.31" y="312.68" class="st2" v:langID="1031"><v:paragraph v:horizAlign="1"/><v:tabList/><v:newlineChar/>Motor_Kyy <v:newlineChar/><tspan
						x="10.88" dy="1.2em" class="st3">Fehlerhaft<v:newlineChar/></tspan><tspan x="14.43" dy="1.2em" class="st3">markiert</tspan></text>		</g>
		<g id="shape46-87" v:mID="46" v:groupContext="shape" v:layerMember="0" transform="translate(179.057,-261.572)">
			<title>动态连接线.46</title>
			<path d="M2.13 339.6 L7.44 339.6 L7.44 366.11 L12.05 366.11" class="st4"/>
		</g>
		<g id="shape51-90" v:mID="51" v:groupContext="shape" transform="translate(244.254,-202.62)">
			<title>矩形.51</title>
			<desc>Motor_Kyy ausgefallen</desc>
			<v:userDefs>
				<v:ud v:nameU="visVersion" v:val="VT0(15):26"/>
			</v:userDefs>
			<v:textBlock v:margins="rect(4,4,4,4)" v:tabSpace="42.5197"/>
			<v:textRect cx="31.8898" cy="315.683" width="63.78" height="47.8346"/>
			<rect x="0" y="291.766" width="63.7795" height="47.8346" class="st1"/>
			<text x="9.31" y="318.68" class="st2" v:langID="1031"><v:paragraph v:horizAlign="1"/><v:tabList/><v:newlineChar/>Motor_Kyy <v:newlineChar/><tspan
						x="8.74" dy="1.2em" class="st3">ausgefallen</tspan></text>		</g>
		<g id="shape52-94" v:mID="52" v:groupContext="shape" v:layerMember="0" transform="translate(232.207,-219.451)">
			<title>动态连接线.52</title>
			<path d="M2.13 332.51 L12.05 332.51" class="st4"/>
		</g>
		<g id="shape53-97" v:mID="53" v:groupContext="shape" v:layerMember="0" transform="translate(308.033,-226.537)">
			<title>动态连接线.53</title>
			<path d="M0 339.6 L10.63 339.6 L10.63 385.93 L41.1 385.93" class="st4"/>
		</g>
		<g id="shape54-100" v:mID="54" v:groupContext="shape" transform="translate(233.447,-317.689)">
			<title>圆形</title>
			<desc>1</desc>
			<v:userDefs>
				<v:ud v:nameU="visVersion" v:val="VT0(15):26"/>
			</v:userDefs>
			<v:textBlock v:margins="rect(4,4,4,4)" v:tabSpace="42.5197"/>
			<v:textRect cx="10.8957" cy="328.705" width="19.07" height="16.3435"/>
			<path d="M0 328.7 A10.8957 10.8957 0 0 1 21.79 328.7 A10.8957 10.8957 0 1 1 0 328.7 Z" class="st1"/>
			<text x="6.33" y="334.1" class="st5" v:langID="1031"><v:paragraph v:horizAlign="1"/><v:tabList/>1</text>		</g>
		<g id="shape55-103" v:mID="55" v:groupContext="shape" transform="translate(233.447,-175.957)">
			<title>圆形.55</title>
			<desc>3</desc>
			<v:userDefs>
				<v:ud v:nameU="visVersion" v:val="VT0(15):26"/>
			</v:userDefs>
			<v:textBlock v:margins="rect(4,4,4,4)" v:tabSpace="42.5197"/>
			<v:textRect cx="10.8957" cy="328.705" width="19.07" height="16.3435"/>
			<path d="M0 328.7 A10.8957 10.8957 0 0 1 21.79 328.7 A10.8957 10.8957 0 1 1 0 328.7 Z" class="st1"/>
			<text x="6.33" y="334.1" class="st5" v:langID="1031"><v:paragraph v:horizAlign="1"/><v:tabList/>3</text>		</g>
		<g id="shape56-106" v:mID="56" v:groupContext="shape" transform="translate(233.447,-108.368)">
			<title>圆形.56</title>
			<desc>4</desc>
			<v:userDefs>
				<v:ud v:nameU="visVersion" v:val="VT0(15):26"/>
			</v:userDefs>
			<v:textBlock v:margins="rect(4,4,4,4)" v:tabSpace="42.5197"/>
			<v:textRect cx="10.8957" cy="328.705" width="19.07" height="16.3435"/>
			<path d="M0 328.7 A10.8957 10.8957 0 0 1 21.79 328.7 A10.8957 10.8957 0 1 1 0 328.7 Z" class="st1"/>
			<text x="6.33" y="334.1" class="st5" v:langID="1031"><v:paragraph v:horizAlign="1"/><v:tabList/>4</text>		</g>
		<g id="shape57-109" v:mID="57" v:groupContext="shape" transform="translate(233.447,-34.2243)">
			<title>圆形.57</title>
			<desc>5</desc>
			<v:userDefs>
				<v:ud v:nameU="visVersion" v:val="VT0(15):26"/>
			</v:userDefs>
			<v:textBlock v:margins="rect(4,4,4,4)" v:tabSpace="42.5197"/>
			<v:textRect cx="10.8957" cy="328.705" width="19.07" height="16.3435"/>
			<path d="M0 328.7 A10.8957 10.8957 0 0 1 21.79 328.7 A10.8957 10.8957 0 1 1 0 328.7 Z" class="st1"/>
			<text x="6.33" y="334.1" class="st5" v:langID="1031"><v:paragraph v:horizAlign="1"/><v:tabList/>5</text>		</g>
		<g id="shape58-112" v:mID="58" v:groupContext="shape" transform="translate(241.065,-239.205)">
			<title>圆形.58</title>
			<desc>2</desc>
			<v:userDefs>
				<v:ud v:nameU="visVersion" v:val="VT0(15):26"/>
			</v:userDefs>
			<v:textBlock v:margins="rect(4,4,4,4)" v:tabSpace="42.5197"/>
			<v:textRect cx="10.8957" cy="328.705" width="19.07" height="16.3435"/>
			<path d="M0 328.7 A10.8957 10.8957 0 0 1 21.79 328.7 A10.8957 10.8957 0 1 1 0 328.7 Z" class="st1"/>
			<text x="6.33" y="334.1" class="st5" v:langID="1031"><v:paragraph v:horizAlign="1"/><v:tabList/>2</text>		</g>
	</g>
</svg>
